<svg xmlns="http://www.w3.org/2000/svg" width="30" height="30"
 data-name="Layer 1" viewBox="0 0 100 100">
 <path d="m42.42 68.703 1.906-.64a1.069 1.069 0 0 0 .65-1.327.99.99 0 0 0-1.256-.686l-1.906.64a1.069
 1.069 0 0 0-.65 1.327.99.99 0 0 0 1.256.686Zm-7.623 2.562 1.906-.64a1.069 1.069 0 0 0 .65-1.327.99.99
 0 0 0-1.257-.686l-1.906.64a1.069 1.069 0 0 0-.65 1.327.99.99 0 0 0 1.257.686Zm-7.624 2.562
 1.906-.64a1.069 1.069 0 0 0 .65-1.327.99.99 0 0 0-1.256-.687l-1.906.64a1.069 1.069
 0 0 0-.65 1.327.99.99 0 0 0 1.256.687Zm-7.623 2.561 1.906-.64a1.069 1.069 0 0 0 .65-1.327.99.99
 0 0 0-1.257-.686l-1.905.64a1.069 1.069 0 0 0-.65 1.327.99.99 0 0 0 1.256.686Zm-7.623 2.562
 1.905-.64a1.069 1.069 0 0 0 .65-1.327.99.99 0 0 0-1.256-.686l-1.906.64a1.069 1.069 0 0 0-.65
 1.327.99.99 0 0 0 1.257.686ZM58.186 66.69l-1.906-.64a.99.99 0 0 0-1.256.686 1.069 1.069
 0 0 0 .65 1.327l1.906.64a.99.99 0 0 0 1.256-.686 1.069 1.069 0 0 0-.65-1.327Zm7.624
 2.562-1.906-.64a.99.99 0 0 0-1.256.686 1.069 1.069 0 0 0 .65 1.326l1.905.64a.99.99 0 0 0 1.256-.685
 1.069 1.069 0 0 0-.65-1.327Zm7.623 2.562-1.906-.64a.99.99 0 0 0-1.256.686 1.069 1.069
 0 0 0 .65 1.326l1.906.64a.99.99 0 0 0 1.256-.686 1.069 1.069 0 0 0-.65-1.326Zm7.623
 2.562-1.905-.64a.99.99 0 0 0-1.257.685 1.069 1.069 0 0 0 .65 1.327l1.906.64a.99.99 0 0 0 1.256-.686
 1.069 1.069 0 0 0-.65-1.326Zm7.624 2.561-1.906-.64a.99.99 0 0 0-1.256.686 1.069 1.069 0 0 0 .65
 1.327l1.905.64a.99.99 0 0 0 1.257-.686 1.069 1.069 0 0 0-.65-1.327ZM50 9a1.003 1.003 0 0 0-1 1v2a1
 1 0 0 0 2 0v-2a1.003 1.003 0 0 0-1-1Zm0 8a1.003 1.003 0 0 0-1 1v2a1 1 0 0 0 2 0v-2a1.003 1.003
 0 0 0-1-1Zm0 8a1.003 1.003 0 0 0-1 1v2a1 1 0 0 0 2 0v-2a1.003 1.003 0 0 0-1-1Z"/>
 <path d="M94.98 19.8a1.007 1.007 0 0 0-.78-.78L50.3 5.05a.883.883 0 0 0-.6 0L5.8
 19.02a1.007 1.007 0 0 0-.78.78A1.23 1.23 0 0 0 5 20v60a1.23 1.23 0 0 0 .02.2.994.994
 0 0 0 .68.75l.1.03 43.81 13.94.09.03a.884.884 0 0 0 .6 0l.09-.03L94.3 80.95A.996.996
 0 0 0 95 80V20a1.23 1.23 0 0 0-.02-.2ZM50 7.05 90.7 20 50 32.95 9.3 20ZM7 21.36l42
 13.37v57.9L7 79.27Zm86 57.91L51 92.63v-57.9l42-13.37Z"/>
 </svg>
